<?xml version="1.0" encoding="UTF-8"?>
<svg preserveAspectRatio="xMidYMid" viewBox="0 0 56.813 70.687" xmlns="http://www.w3.org/2000/svg">
<defs>
<style>.cls-1 {
        fill: #000;
        filter: url(#a);
        fill-rule: evenodd;
      }</style>
<filter id="a" filterUnits="userSpaceOnUse">
<feFlood flood-color="rgb(37, 84, 195)"/>
<feComposite in2="SourceGraphic" operator="in"/>
<feBlend in2="SourceGraphic" result="solidFill"/>
</filter>
</defs>
<path class="cls-1" d="m52.144 70.687h-26.109c-2.577 0-4.673-2.086-4.673-4.648v-2.435h-17.876c-1.922 0-3.486-1.555-3.486-3.467v-56.659c0-1.912 1.564-3.466 3.486-3.466h30.856c0.295 0 0.578 0.116 0.787 0.323l11.868 11.804c0.209 0.208 0.326 0.489 0.326 0.783v17.779h4.821c2.577 0 4.673 2.085 4.673 4.648v30.69c0 2.562-2.096 4.648-4.673 4.648zm-16.689-66.898v5.591c0 1.343 1.098 2.435 2.448 2.435h5.621l-8.069-8.026zm9.643 10.239h-7.195c-2.577 0-4.673-2.085-4.673-4.648v-7.155h-29.744c-0.695 0-1.261 0.562-1.261 1.253v56.659c0 0.691 0.566 1.254 1.261 1.254h17.876v-26.042c0-2.563 2.096-4.648 4.673-4.648h19.063v-16.673zm9.494 21.321c0-1.343-1.098-2.435-2.448-2.435h-26.109c-1.35 0-2.448 1.092-2.448 2.435v30.69c0 1.342 1.098 2.434 2.448 2.434h26.109c1.35 0 2.448-1.092 2.448-2.434v-30.69zm-4.821 29.436h-2.374c-1.268 0-2.299-1.027-2.299-2.288v-2.36c0-1.261 1.031-2.287 2.299-2.287h2.374c1.268 0 2.299 1.026 2.299 2.287v2.36c0 1.261-1.031 2.288-2.299 2.288zm0.074-4.648c0-0.041-0.033-0.074-0.074-0.074h-2.374c-0.041 0-0.074 0.033-0.074 0.074v2.36c0 0.041 0.033 0.074 0.074 0.074h2.374c0.041 0 0.074-0.033 0.074-0.074v-2.36zm-0.074-4.796h-2.374c-1.268 0-2.299-1.025-2.299-2.287v-2.361c0-1.26 1.031-2.286 2.299-2.286h2.374c1.268 0 2.299 1.026 2.299 2.286v2.361c0 1.262-1.031 2.287-2.299 2.287zm0.074-4.647c0-0.041-0.033-0.074-0.074-0.074h-2.374c-0.041 0-0.074 0.033-0.074 0.074v2.36c0 0.041 0.033 0.074 0.074 0.074h2.374c0.041 0 0.074-0.033 0.074-0.074v-2.36zm-0.074-5.976h-21.362c-1.268 0-2.3-1.026-2.3-2.287v-4.721c0-1.262 1.032-2.288 2.3-2.288h21.362c1.268 0 2.299 1.026 2.299 2.288v4.721c0 1.261-1.031 2.287-2.299 2.287zm0.074-2.287v-4.721c0-0.042-0.033-0.074-0.074-0.074h-21.362c-0.042 0-0.075 0.032-0.075 0.074v4.721c0 0.041 0.033 0.074 0.075 0.074h21.362c0.041 0 0.074-0.033 0.074-0.074zm-21.436 5.976h2.373c1.268 0 2.299 1.026 2.299 2.286v2.361c0 1.262-1.031 2.287-2.299 2.287h-2.373c-1.268 0-2.3-1.025-2.3-2.287v-2.361c0-1.26 1.032-2.286 2.3-2.286zm-0.075 4.647c0 0.041 0.033 0.074 0.075 0.074h2.373c0.041 0 0.074-0.033 0.074-0.074v-2.36c0-0.041-0.033-0.074-0.074-0.074h-2.373c-0.042 0-0.075 0.033-0.075 0.074v2.36zm0.075 4.796h2.373c1.268 0 2.299 1.026 2.299 2.287v2.36c0 1.261-1.031 2.288-2.299 2.288h-2.373c-1.268 0-2.3-1.027-2.3-2.288v-2.36c0-1.261 1.032-2.287 2.3-2.287zm-0.075 4.647c0 0.041 0.033 0.074 0.075 0.074h2.373c0.041 0 0.074-0.033 0.074-0.074v-2.36c0-0.041-0.033-0.074-0.074-0.074h-2.373c-0.042 0-0.075 0.033-0.075 0.074v2.36zm9.569-14.09h2.373c1.268 0 2.3 1.026 2.3 2.286v2.361c0 1.262-1.032 2.287-2.3 2.287h-2.373c-1.268 0-2.3-1.025-2.3-2.287v-2.361c0-1.26 1.032-2.286 2.3-2.286zm-0.074 4.647c0 0.041 0.033 0.074 0.074 0.074h2.373c0.041 0 0.074-0.033 0.074-0.074v-2.36c0-0.041-0.033-0.074-0.074-0.074h-2.373c-0.041 0-0.074 0.033-0.074 0.074v2.36zm0.074 4.796h2.373c1.268 0 2.3 1.026 2.3 2.287v2.36c0 1.261-1.032 2.288-2.3 2.288h-2.373c-1.268 0-2.3-1.027-2.3-2.288v-2.36c0-1.261 1.032-2.287 2.3-2.287zm-0.074 4.647c0 0.041 0.033 0.074 0.074 0.074h2.373c0.041 0 0.074-0.033 0.074-0.074v-2.36c0-0.041-0.033-0.074-0.074-0.074h-2.373c-0.041 0-0.074 0.033-0.074 0.074v2.36zm-31.895-35.411c0-0.611 0.498-1.107 1.112-1.107h33.23c0.615 0 1.113 0.496 1.113 1.107s-0.498 1.107-1.113 1.107h-33.23c-0.614 0-1.112-0.496-1.112-1.107zm31.969-7.156h-1.187c-0.615 0-1.113-0.495-1.113-1.106 0-0.612 0.499-1.107 1.113-1.107h1.187c0.614 0 1.112 0.495 1.112 1.107 0 0.611-0.498 1.106-1.112 1.106zm-5.934 0h-1.187c-0.614 0-1.112-0.495-1.112-1.106 0-0.612 0.498-1.107 1.112-1.107h1.187c0.614 0 1.113 0.495 1.113 1.107 0 0.611-0.499 1.106-1.113 1.106zm-5.934-2.213c0.614 0 1.113 0.495 1.113 1.107 0 0.611-0.499 1.106-1.113 1.106h-1.187c-0.614 0-1.112-0.495-1.112-1.106 0-0.612 0.498-1.107 1.112-1.107h1.187zm-7.121 0h1.187c0.614 0 1.113 0.495 1.113 1.107 0 0.611-0.499 1.106-1.113 1.106h-1.187c-0.614 0-1.112-0.495-1.112-1.106 0-0.612 0.498-1.107 1.112-1.107zm11.868-2.508h-11.868c-0.614 0-1.113-0.496-1.113-1.107s0.499-1.106 1.113-1.106h11.868c0.615 0 1.113 0.495 1.113 1.106s-0.499 1.107-1.113 1.107zm-2.373-4.722h-9.495c-0.614 0-1.112-0.495-1.112-1.107 0-0.611 0.498-1.106 1.112-1.106h9.495c0.614 0 1.112 0.495 1.112 1.106 0 0.612-0.498 1.107-1.112 1.107zm-13.129 6.935c0 1.764-1.495 3.202-3.561 3.587v0.175c0 0.612-0.498 1.107-1.112 1.107-0.615 0-1.113-0.495-1.113-1.107v-0.175c-2.066-0.385-3.56-1.822-3.56-3.587 0-0.611 0.498-1.107 1.112-1.107 0.615 0 1.113 0.496 1.113 1.107 0 0.499 0.515 1.037 1.335 1.304v-3.846c-1.58-0.596-3.56-1.632-3.56-4.098 0-1.764 1.494-3.202 3.56-3.586v-0.176c0-0.612 0.498-1.107 1.113-1.107 0.614 0 1.112 0.496 1.112 1.107v0.176c2.066 0.384 3.561 1.822 3.561 3.586 0 0.612-0.498 1.107-1.113 1.107-0.614 0-1.113-0.495-1.113-1.107 0-0.498-0.515-1.036-1.335-1.304v3.846c1.581 0.596 3.561 1.632 3.561 4.098zm-3.561 1.304c0.82-0.267 1.335-0.805 1.335-1.304 0-0.671-0.225-1.143-1.335-1.684v2.988zm-2.225-9.248c-0.82 0.268-1.335 0.806-1.335 1.304 0 0.671 0.226 1.143 1.335 1.684v-2.988zm-2.448 23.583h2.374c0.614 0 1.113 0.496 1.113 1.107 0 0.612-0.499 1.107-1.113 1.107h-2.374c-0.614 0-1.112-0.495-1.112-1.107 0-0.611 0.498-1.107 1.112-1.107zm0 4.722h2.374c0.614 0 1.113 0.496 1.113 1.107s-0.499 1.106-1.113 1.106h-2.374c-0.614 0-1.112-0.495-1.112-1.106s0.498-1.107 1.112-1.107zm0 4.722h2.374c0.614 0 1.113 0.495 1.113 1.106 0 0.612-0.499 1.107-1.113 1.107h-2.374c-0.614 0-1.112-0.495-1.112-1.107 0-0.611 0.498-1.106 1.112-1.106zm0 4.721h2.374c0.614 0 1.113 0.496 1.113 1.107s-0.499 1.106-1.113 1.106h-2.374c-0.614 0-1.112-0.495-1.112-1.106s0.498-1.107 1.112-1.107zm0 4.722h2.374c0.614 0 1.113 0.495 1.113 1.106 0 0.612-0.499 1.107-1.113 1.107h-2.374c-0.614 0-1.112-0.495-1.112-1.107 0-0.611 0.498-1.106 1.112-1.106zm7.121-18.887h3.56c0.615 0 1.113 0.496 1.113 1.107 0 0.612-0.498 1.107-1.113 1.107h-3.56c-0.615 0-1.113-0.495-1.113-1.107 0-0.611 0.499-1.107 1.113-1.107zm0 4.722h3.56c0.615 0 1.113 0.496 1.113 1.107s-0.498 1.106-1.113 1.106h-3.56c-0.615 0-1.113-0.495-1.113-1.106s0.499-1.107 1.113-1.107zm0 4.722h3.56c0.615 0 1.113 0.495 1.113 1.106 0 0.612-0.498 1.107-1.113 1.107h-3.56c-0.615 0-1.113-0.495-1.113-1.107 0-0.611 0.499-1.106 1.113-1.106zm0 4.721h3.56c0.615 0 1.113 0.496 1.113 1.107s-0.498 1.106-1.113 1.106h-3.56c-0.615 0-1.113-0.495-1.113-1.106s0.499-1.107 1.113-1.107zm0 4.722h3.56c0.615 0 1.113 0.495 1.113 1.106 0 0.612-0.498 1.107-1.113 1.107h-3.56c-0.615 0-1.113-0.495-1.113-1.107 0-0.611 0.499-1.106 1.113-1.106z"/>
</svg>
