<?xml version="1.0" encoding="UTF-8"?>
<svg preserveAspectRatio="xMidYMid" viewBox="0 0 58.28 65.75" xmlns="http://www.w3.org/2000/svg">
<defs>
<style>.cls-1 {
        fill: #000;
        filter: url(#a);
        fill-rule: evenodd;
      }</style>
<filter id="a" filterUnits="userSpaceOnUse">
<feFlood flood-color="rgb(37, 84, 195)"/>
<feComposite in2="SourceGraphic" operator="in"/>
<feBlend in2="SourceGraphic" result="solidFill"/>
</filter>
</defs>
<path class="cls-1" d="m58.182 54.03v0.109c-0.111 0.11-0.111 0.219-0.221 0.329l-11.001 10.961c-0.22 0.219-0.44 0.329-0.77 0.329h-38.507c-0.66 0-1.1-0.439-1.1-1.096v-17.538h2.201v16.442h36.305v-9.865c0-0.658 0.441-1.096 1.101-1.096h9.901v-50.422h-47.307v14.249h-2.201v-15.345c0-0.658 0.44-1.096 1.1-1.096h49.508c0.66 0 1.101 0.438 1.101 1.096v52.614c0 0.109 0 0.219-0.11 0.329zm-10.892 0.767v7.234l3.63-3.617 3.631-3.617h-7.261zm-35.206-48.229h6.601v2.192h-6.601v-2.192zm9.902 7.672h-9.902v-2.192h9.902v2.192zm1.1 32.884h7.701v2.192h-7.701v-2.192zm0 5.481h7.701v2.192h-7.701v-2.192zm0 5.48h7.701v2.192h-7.701v-2.192zm3.3-31.787v-18.635c0-0.657 0.441-1.095 1.101-1.095h23.103c0.66 0 1.1 0.438 1.1 1.095v18.635c0 0.658-0.44 1.096-1.1 1.096h-23.103c-0.66 0-1.101-0.438-1.101-1.096zm9.902-1.096h13.202v-9.865h-13.202v9.865zm0-12.058h13.202v-4.384h-13.202v4.384zm-7.701 12.058h5.501v-9.865h-5.501v9.865zm0-12.058h5.501v-4.384h-5.501v4.384zm22.003 25.211h-23.103v-2.192h23.103v2.192zm-23.103-7.673h23.103v2.193h-23.103v-2.193zm0 10.961h23.103v2.193h-23.103v-2.193zm6.601 5.481h7.701v2.192h-7.701v-2.192zm7.701 13.153h-7.701v-2.192h7.701v2.192zm-7.701-7.672h7.701v2.192h-7.701v-2.192zm-22.004-5.481h7.701v2.192h-7.701v-2.192zm7.701 13.153h-7.701v-2.192h7.701v2.192zm-7.701-7.672h7.701v2.192h-7.701v-2.192zm-5.501-26.307c0-0.658 0.44-1.096 1.1-1.096h5.501v-6.577c0-0.658 0.441-1.096 1.101-1.096h6.601c0.66 0 1.1 0.438 1.1 1.096v20.826h3.3v2.192h-4.4-6.601-6.602-6.601c-0.66 0-1.1-0.438-1.1-1.096v-8.769c0-0.658 0.44-1.096 1.1-1.096h5.501v-4.384zm8.802 0v13.153h4.4v-19.73h-4.4v6.577zm-6.601 5.48v7.673h4.4v-12.057h-4.4v4.384zm-6.601 1.097v6.576h4.4v-6.576h-4.4z"/>
</svg>
