<svg width="141.732" height="141.732" xmlns="http://www.w3.org/2000/svg">

 <g>
  <title>background</title>
  <rect fill="none" id="canvas_background" height="402" width="582" y="-1" x="-1"/>
 </g>
 <g>
  <title>Layer 1</title>
  <path transform="rotate(-39.39064407348633 70.86549377441405,69.67949676513672) " fill="#ffffff" id="svg_1" d="m88.637,42.678c0.045,0 0.086,-0.003 0.131,-0.003l0,-42.671c-0.045,0 -0.086,-0.004 -0.131,-0.004c-23.654,0 -42.829,31.197 -42.829,69.68c0,38.479 19.175,69.679 42.829,69.679c0.041,0 0.082,-0.003 0.121,-0.005l0,-42.655c-0.039,0 -0.08,-0.003 -0.121,-0.003c-3.361,0 -6.541,0.777 -9.371,2.159c-4.145,-8.11 -6.605,-18.253 -6.605,-29.26c0,-10.943 2.438,-21.031 6.537,-29.118c2.846,1.408 6.049,2.201 9.439,2.201m7.286,-2.418c0,-0.048 -0.004,-0.09 -0.006,-0.133l0.006,0l0,-37.316l-0.006,0c0.002,-0.044 0.006,-0.087 0.006,-0.131c0,-1.413 -1.145,-2.562 -2.557,-2.562c-1.41,0 -2.557,1.146 -2.557,2.562c0,0.044 0.004,0.087 0.006,0.131l-0.006,0l0,37.319l0.006,0c-0.002,0.043 -0.006,0.085 -0.006,0.133c0,1.402 1.146,2.545 2.557,2.545c1.412,-0.004 2.557,-1.143 2.557,-2.548m-0.006,96.405l0.006,0l0,-37.319l-0.006,0c0.002,-0.044 0.006,-0.087 0.006,-0.135c0,-1.409 -1.145,-2.558 -2.557,-2.558c-1.41,0 -2.557,1.146 -2.557,2.558c0,0.048 0.004,0.091 0.006,0.135l-0.006,0l0,37.315l0.006,0c-0.002,0.043 -0.006,0.085 -0.006,0.129c0,1.406 1.146,2.545 2.557,2.545c1.412,0 2.557,-1.139 2.557,-2.545c0,-0.04 -0.004,-0.082 -0.006,-0.125"/>
 </g>
</svg>