<?xml version="1.0" encoding="UTF-8"?>
<svg preserveAspectRatio="xMidYMid" viewBox="0 0 69.66 62.875" xmlns="http://www.w3.org/2000/svg">
<defs>
<style>.cls-1 {
        fill: #000;
        filter: url(#a);
        fill-rule: evenodd;
      }</style>
<filter id="a" filterUnits="userSpaceOnUse">
<feFlood flood-color="rgb(37, 84, 195)"/>
<feComposite in2="SourceGraphic" operator="in"/>
<feBlend in2="SourceGraphic" result="solidFill"/>
</filter>
</defs>
<path class="cls-1" d="m69.661 44.737c0-0.154-0.029-0.309-0.092-0.454l-10.32-24.002c0.052-8e-3 0.104-0.016 0.155-0.026 3.016-0.599 4.61-3.04 5.417-4.983 0.147-0.355 0.107-0.76-0.107-1.08-0.213-0.319-0.573-0.511-0.957-0.511h-0.705c-0.636 0-1.152 0.515-1.152 1.151 0 0.26 0.087 0.5 0.233 0.693-0.815 1.385-1.88 2.215-3.177 2.473-2.572 0.51-5.738-1.249-7.591-3.1-4.692-4.689-12.485-5.751-15.388-5.988v-2.392c1.291-0.472 2.216-1.711 2.216-3.163 0-1.855-1.511-3.365-3.368-3.365s-3.368 1.51-3.368 3.365c0 1.452 0.924 2.691 2.216 3.162v2.395c-1.088 0.091-2.867 0.299-4.919 0.77-4.525 1.041-8.047 2.795-10.469 5.215-1.853 1.851-5.019 3.611-7.591 3.1-1.297-0.257-2.362-1.088-3.177-2.472 0.146-0.194 0.233-0.433 0.233-0.694 0-0.635-0.516-1.151-1.152-1.151h-0.705c-0.384 0-0.744 0.192-0.957 0.512-0.214 0.32-0.254 0.725-0.107 1.08 0.807 1.943 2.401 4.384 5.417 4.983 0.051 0.01 0.103 0.018 0.155 0.026l-10.32 24.002c-0.063 0.146-0.092 0.3-0.092 0.454h-2e-3v1.372c0 3.661 2.982 6.64 6.646 6.64h10.493c3.665 0 6.646-2.979 6.646-6.64v-1.372h-1e-3c0-0.154-0.03-0.309-0.092-0.454l-10.352-24.076c1.108-0.226 2.205-0.652 3.227-1.2l2e-3 3e-3c8.068-3.692 14.598-4.405 17.117-4.539v27.77h-0.529c-1.523 0-2.762 1.237-2.762 2.758v5.239h-0.082c-2.285 0-4.143 1.857-4.143 4.14v0.662h-6.792c-2.814 0-5.104 2.287-5.104 5.098v1.594c0 0.635 0.516 1.151 1.152 1.151h38.823c0.637 0 1.152-0.516 1.152-1.151v-1.594c0-2.811-2.289-5.098-5.103-5.098h-6.792v-0.662c0-2.283-1.859-4.14-4.144-4.14h-0.082v-5.239c0-1.521-1.238-2.758-2.761-2.758h-0.529v-27.772c0.895 0.046 2.294 0.164 4.082 0.462 2.965 0.497 7.633 1.607 13.035 4.079l1e-3 -3e-3c1.023 0.548 2.12 0.974 3.228 1.2l-10.352 24.076c-0.063 0.146-0.092 0.3-0.092 0.454h-1e-3v1.372c0 3.661 2.981 6.64 6.646 6.64h10.493c3.664 0 6.646-2.979 6.646-6.64v-1.372h-2e-3zm-48.193 1.372c0 2.392-1.947 4.338-4.342 4.338h-10.493c-2.394 0-4.342-1.946-4.342-4.338v-0.222h19.177v0.222zm-0.596-2.523h-17.984l8.992-20.913 8.992 20.913zm13.953-41.294c0.587 0 1.064 0.477 1.064 1.063 0 0.587-0.477 1.064-1.064 1.064s-1.065-0.477-1.065-1.064c0-0.586 0.478-1.063 1.065-1.063zm15.46 55.049c1.544 0 2.799 1.255 2.799 2.797v0.443h-36.519v-0.443c0-1.542 1.256-2.797 2.8-2.797h30.92zm-10.936-4.802c1.015 0 1.84 0.825 1.84 1.839v0.662h-12.728v-0.662c0-1.014 0.825-1.839 1.839-1.839h1.234 6.581 1.234zm-2.843-7.996c0.252 0 0.457 0.205 0.457 0.456v5.239h-4.277v-5.239c0-0.251 0.206-0.456 0.458-0.456h3.362zm-1.682-32.403c-0.488-0.011-4.851-0.05-11.306 1.822 4.91-2.53 10.846-2.8 11.307-2.817 0.46 0.017 6.396 0.287 11.306 2.817-6.459-1.874-10.825-1.833-11.307-1.822zm22.946 10.533l8.992 20.913h-17.984l8.992-20.913zm9.589 23.436c0 2.392-1.948 4.338-4.343 4.338h-10.493c-2.394 0-4.342-1.946-4.342-4.338v-0.222h19.178v0.222z"/>
</svg>
