<svg width="512" height="512" xmlns="http://www.w3.org/2000/svg">

 <g>
  <title>background</title>
  <rect fill="none" id="canvas_background" height="402" width="582" y="-1" x="-1"/>
 </g>
 <g>
  <title>Layer 1</title>
  <path fill="#ffffff" id="XMLID_142_" d="m378.7,245.466143c-3.3,-8.5 -7.7,-15.7 -14.9,-22.9c-7.2,-7.2 -14.4,-11.6 -22.9,-14.9c-8.2,-3.2 -17.7,-5.4 -31.4,-6c-13.8,-0.6 -18.2,-0.8 -53.4,-0.8s-39.6,0.1 -53.4,0.8c-13.8,0.6 -23.2,2.8 -31.4,6c-8.5,3.3 -15.7,7.7 -22.9,14.9s-11.6,14.4 -14.9,22.9c-3.2,8.2 -5.4,17.7 -6,31.4c-0.6,13.8 -0.8,18.2 -0.8,53.4s0.1,39.6 0.8,53.4c0.6,13.8 2.8,23.2 6,31.4c3.3,8.5 7.7,15.7 14.9,22.9c7.2,7.2 14.4,11.6 22.9,14.9c8.2,3.2 17.7,5.4 31.4,6c13.8,0.6 18.2,0.8 53.4,0.8s39.6,-0.1 53.4,-0.8c13.8,-0.6 23.2,-2.8 31.4,-6c8.5,-3.3 15.7,-7.7 22.9,-14.9c7.2,-7.2 11.6,-14.4 14.9,-22.9c3.2,-8.2 5.4,-17.7 6,-31.4c0.6,-13.8 0.8,-18.2 0.8,-53.4s-0.1,-39.6 -0.8,-53.4c-0.6,-13.8 -2.8,-23.2 -6,-31.4zm-17.3,137.1c-0.6,12.6 -2.7,19.5 -4.5,24c-2.3,6 -5.2,10.4 -9.7,14.9s-8.8,7.3 -14.9,9.7c-4.6,1.8 -11.4,3.9 -24,4.5c-13.7,0.6 -17.7,0.8 -52.3,0.8s-38.7,-0.1 -52.3,-0.8c-12.6,-0.6 -19.5,-2.7 -24,-4.5c-6,-2.3 -10.4,-5.2 -14.9,-9.7s-7.3,-8.8 -9.7,-14.9c-1.8,-4.6 -3.9,-11.4 -4.5,-24c-0.6,-13.7 -0.8,-17.8 -0.8,-52.3s0.1,-38.7 0.8,-52.3c0.6,-12.6 2.7,-19.5 4.5,-24c2.3,-6 5.2,-10.4 9.7,-14.9s8.8,-7.3 14.9,-9.7c4.6,-1.8 11.4,-3.9 24,-4.5c13.7,-0.6 17.8,-0.8 52.3,-0.8s38.7,0.1 52.3,0.8c12.6,0.6 19.5,2.7 24,4.5c6,2.3 10.4,5.2 14.9,9.7s7.3,8.8 9.7,14.9c1.8,4.6 3.9,11.4 4.5,24c0.6,13.7 0.8,17.8 0.8,52.3s-0.2,38.7 -0.8,52.3z"/>
  <path transform="rotate(-0.6169836521148682 256.0000000000077,332.4999999999979) " fill="#ffffff" id="XMLID_145_" d="m256,266c-36.7,0 -66.5,29.8 -66.5,66.5s29.8,66.5 66.5,66.5s66.5,-29.8 66.5,-66.5s-29.8,-66.5 -66.5,-66.5zm0,109.7c-23.8,0 -43.2,-19.3 -43.2,-43.2c0,-23.8 19.3,-43.2 43.2,-43.2s43.2,19.3 43.2,43.2c0,23.8 -19.4,43.2 -43.2,43.2z"/>
  <circle fill="#ffffff" r="15.5" id="XMLID_143_" cy="263.4" cx="325.1"/>
  <ellipse stroke="null" rx="22.338582" id="svg_2" cy="47.605545" cx="406.226909" stroke-opacity="null" stroke-width="null" fill="#ffffff"/>
 </g>
</svg>